<svg width="588.52" height="395.875" xmlns="http://www.w3.org/2000/svg" enable-background="new 0 0 588.52 395.875">
 <defs>
  <linearGradient y2="0.09772" y1="0.91349" x2="0.99643" x1="-0.01027" id="a">
   <stop stop-color="#030a24" offset="0"/>
   <stop stop-color="#2c25a3" offset="1"/>
  </linearGradient>
  <linearGradient y2="0.94674" y1="-0.45407" x2="0.5" x1="0.5" id="b">
   <stop stop-color="#0b1a42" offset="0.1912"/>
   <stop stop-color="#2c25a3" offset="0.6118"/>
   <stop stop-color="#6da2ef" offset="1"/>
  </linearGradient>
 </defs>
 <g>
  <title>Layer 1</title>
  <path id="svg_1" fill="#6da2ef" d="m379.929,395.874l-171.338,0c-1.857,0 -3.363,-1.506 -3.363,-3.363s1.506,-3.363 3.363,-3.363l171.338,0c1.857,0 3.363,1.506 3.363,3.363s-1.506,3.363 -3.363,3.363z"/>
  <path id="svg_2" fill="#6da2ef" d="m579.508,324.521l-568.496,0c-5.53,0 -10.012,-4.483 -10.012,-10.012l0,-304.497c0,-5.53 4.482,-10.012 10.012,-10.012l568.496,0c5.529,0 10.012,4.482 10.012,10.012l0,304.497c0,5.529 -4.483,10.012 -10.012,10.012z"/>
  <path id="svg_3" fill="url(#a)" d="m579.341,272.74l-570.163,0c-5.069,0 -9.178,-4.109 -9.178,-9.178l0,-254.384c0,-5.069 4.109,-9.178 9.178,-9.178l570.163,0c5.069,0 9.178,4.109 9.178,9.178l0,254.384c0.001,5.069 -4.109,9.178 -9.178,9.178z"/>
  <path id="svg_4" fill="#fff" d="m242.376,302.029l103.514,0c1.877,0 3.398,-1.522 3.398,-3.398c0,-1.877 -1.521,-3.398 -3.398,-3.398l-103.514,0c-1.877,0 -3.398,1.521 -3.398,3.398c0,1.876 1.522,3.398 3.398,3.398z"/>
  <path id="svg_8" fill="url(#b)" d="m253.607,324.521l81.306,0l0,67.991l-81.306,0l0,-67.991z"/>
 </g>
</svg>