<svg width="588.52" height="395.875" xmlns="http://www.w3.org/2000/svg" enable-background="new 0 0 588.52 395.875">
 <defs>
  <linearGradient id="a" x1="-0.01027" x2="0.99643" y1="0.91349" y2="0.09772">
   <stop offset="0" stop-color="#030a24"/>
   <stop offset="1" stop-color="#2c25a3"/>
  </linearGradient>
 </defs>
 <g>
  <title>Layer 1</title>
  <path d="m579.508,324.521l-568.496,0c-5.53,0 -10.012,-4.483 -10.012,-10.012l0,-304.497c0,-5.53 4.482,-10.012 10.012,-10.012l568.496,0c5.529,0 10.012,4.482 10.012,10.012l0,304.497c0,5.529 -4.483,10.012 -10.012,10.012z" fill="#6da2ef" id="svg_2"/>
  <path d="m579.341,272.74l-570.163,0c-5.069,0 -9.178,-4.109 -9.178,-9.178l0,-254.384c0,-5.069 4.109,-9.178 9.178,-9.178l570.163,0c5.069,0 9.178,4.109 9.178,9.178l0,254.384c0.001,5.069 -4.109,9.178 -9.178,9.178z" fill="url(#a)" id="svg_3"/>
  <path d="m242.376,302.029l103.514,0c1.877,0 3.398,-1.522 3.398,-3.398c0,-1.877 -1.521,-3.398 -3.398,-3.398l-103.514,0c-1.877,0 -3.398,1.521 -3.398,3.398c0,1.876 1.522,3.398 3.398,3.398z" fill="#fff" id="svg_4"/>
 </g>
</svg>