<svg enable-background="new 0 0 588.52 395.875" height="396" viewBox="0 0 588.52 395.875" width="589" xmlns="http://www.w3.org/2000/svg" xmlns:xlink="http://www.w3.org/1999/xlink"><linearGradient id="a" gradientUnits="userSpaceOnUse" x1="-6.0427" x2="586.4205" y1="249.1446" y2="26.653"><stop offset="0" stop-color="#030a24"/><stop offset="1" stop-color="#2c25a3"/></linearGradient><linearGradient id="b" gradientUnits="userSpaceOnUse" x1="294.2598" x2="294.2598" y1="293.6485" y2="388.891"><stop offset=".1912" stop-color="#0b1a42"/><stop offset=".6118" stop-color="#2c25a3"/><stop offset="1" stop-color="#6da2ef"/></linearGradient><path d="m379.929 395.874h-171.338c-1.857 0-3.363-1.506-3.363-3.363s1.506-3.363 3.363-3.363h171.338c1.857 0 3.363 1.506 3.363 3.363s-1.506 3.363-3.363 3.363z" fill="#6da2ef"/><path d="m578.508 324.521h-568.496c-5.53 0-10.012-4.483-10.012-10.012v-304.497c0-5.53 4.482-10.012 10.012-10.012h568.496c5.529 0 10.012 4.482 10.012 10.012v304.497c0 5.529-4.483 10.012-10.012 10.012z" fill="#6da2ef"/><path d="m579.341 272.74h-570.163c-5.069 0-9.178-4.109-9.178-9.178v-254.384c0-5.069 4.109-9.178 9.178-9.178h570.163c5.069 0 9.178 4.109 9.178 9.178v254.384c.001 5.069-4.109 9.178-9.178 9.178z" fill="url(#a)"/><path d="m242.376 302.029h103.514c1.877 0 3.398-1.522 3.398-3.398 0-1.877-1.521-3.398-3.398-3.398h-103.514c-1.877 0-3.398 1.521-3.398 3.398 0 1.876 1.522 3.398 3.398 3.398z" fill="#fff"/><path d="m21.412 302.029h1.914c1.877 0 3.398-1.522 3.398-3.398 0-1.877-1.521-3.398-3.398-3.398h-1.914c-1.877 0-3.398 1.521-3.398 3.398-.001 1.876 1.521 3.398 3.398 3.398z" fill="#c8ff00"/><path d="m35.324 302.029h1.914c1.877 0 3.398-1.522 3.398-3.398 0-1.877-1.521-3.398-3.398-3.398h-1.914c-1.877 0-3.398 1.521-3.398 3.398-.001 1.876 1.521 3.398 3.398 3.398z" fill="#ff4a8b"/><path d="m49.236 302.029h8.286c1.877 0 3.398-1.522 3.398-3.398 0-1.877-1.521-3.398-3.398-3.398h-8.286c-1.877 0-3.398 1.521-3.398 3.398-.001 1.876 1.521 3.398 3.398 3.398z" fill="#fff"/><path d="m253.607 324.521h81.306v67.991h-81.306z" fill="url(#b)"/></svg>